<svg xmlns="http://www.w3.org/2000/svg" width="512" height="512" viewBox="0 0 512 512"><defs><linearGradient id="gold" x1="0" y1="0" x2="0" y2="1"><stop offset="0" stop-color="#ffe48f"/><stop offset="1" stop-color="#f2a838"/></linearGradient><linearGradient id="amber" x1="0" y1="0" x2="0" y2="1"><stop offset="0" stop-color="#ffc983"/><stop offset="1" stop-color="#f08c3a"/></linearGradient><linearGradient id="coral" x1="0" y1="0" x2="0" y2="1"><stop offset="0" stop-color="#ffb6a4"/><stop offset="1" stop-color="#ef766a"/></linearGradient><linearGradient id="pink" x1="0" y1="0" x2="0" y2="1"><stop offset="0" stop-color="#ffb8de"/><stop offset="1" stop-color="#ef84bd"/></linearGradient><linearGradient id="magenta" x1="0" y1="0" x2="0" y2="1"><stop offset="0" stop-color="#ff9ee4"/><stop offset="1" stop-color="#e85ec2"/></linearGradient><linearGradient id="violet" x1="0" y1="0" x2="0" y2="1"><stop offset="0" stop-color="#c6a2f6"/><stop offset="1" stop-color="#8a5ae6"/></linearGradient><linearGradient id="lilac" x1="0" y1="0" x2="0" y2="1"><stop offset="0" stop-color="#d4c6f8"/><stop offset="1" stop-color="#9b84e8"/></linearGradient><linearGradient id="sky" x1="0" y1="0" x2="0" y2="1"><stop offset="0" stop-color="#a8dcff"/><stop offset="1" stop-color="#5aa6f0"/></linearGradient><linearGradient id="cyan" x1="0" y1="0" x2="0" y2="1"><stop offset="0" stop-color="#a0f1ff"/><stop offset="1" stop-color="#36c8e8"/></linearGradient><linearGradient id="teal" x1="0" y1="0" x2="0" y2="1"><stop offset="0" stop-color="#8cf1e2"/><stop offset="1" stop-color="#32c0b4"/></linearGradient><linearGradient id="mint" x1="0" y1="0" x2="0" y2="1"><stop offset="0" stop-color="#aaf3c0"/><stop offset="1" stop-color="#52cc82"/></linearGradient><radialGradient id="bg" cx="50%" cy="38%" r="80%"><stop offset="0.00" stop-color="#27496d"/><stop offset="0.50" stop-color="#1d3557"/><stop offset="1.00" stop-color="#14233c"/></radialGradient></defs><rect width="512" height="512" rx="114" fill="url(#bg)"/><circle cx="96" cy="150" r="11" fill="url(#lilac)"/><circle cx="430" cy="118" r="9" fill="none" stroke="url(#teal)" stroke-width="3.5"/><circle cx="60" cy="300" r="8" fill="url(#gold)"/><circle cx="452" cy="330" r="13" fill="none" stroke="url(#pink)" stroke-width="3.5"/><circle cx="120" cy="430" r="8" fill="none" stroke="url(#cyan)" stroke-width="3.5"/><circle cx="404" cy="438" r="10" fill="url(#mint)"/><circle cx="440" cy="232" r="7" fill="url(#amber)"/><path d="M54 196 L54 248 M54 196 L70 196" fill="none" stroke="#ffffff" stroke-width="4" stroke-linecap="round" opacity="0.16"/><path d="M458 264 L458 316 M458 316 L442 316" fill="none" stroke="#ffffff" stroke-width="4" stroke-linecap="round" opacity="0.16"/><rect x="468" y="180" width="6" height="46" rx="3" fill="#ffffff" opacity="0.12"/><path d="M231.7 177.3 Q150 189.3 176 257.3" fill="none" stroke="#0c0c12" stroke-width="23" stroke-linecap="round"/><path d="M231.7 177.3 Q150 189.3 176 257.3" fill="none" stroke="url(#pink)" stroke-width="17" stroke-linecap="round"/><path d="M280.3 177.3 Q362 189.3 336 257.3" fill="none" stroke="#0c0c12" stroke-width="23" stroke-linecap="round"/><path d="M280.3 177.3 Q362 189.3 336 257.3" fill="none" stroke="url(#pink)" stroke-width="17" stroke-linecap="round"/><path d="M229.6 210.4 Q126 222.4 152 310.4" fill="none" stroke="#0c0c12" stroke-width="23" stroke-linecap="round"/><path d="M229.6 210.4 Q126 222.4 152 310.4" fill="none" stroke="url(#magenta)" stroke-width="17" stroke-linecap="round"/><path d="M282.4 210.4 Q386 222.4 360 310.4" fill="none" stroke="#0c0c12" stroke-width="23" stroke-linecap="round"/><path d="M282.4 210.4 Q386 222.4 360 310.4" fill="none" stroke="url(#magenta)" stroke-width="17" stroke-linecap="round"/><path d="M227.5 243.5 Q114 255.5 140 355.5" fill="none" stroke="#0c0c12" stroke-width="23" stroke-linecap="round"/><path d="M227.5 243.5 Q114 255.5 140 355.5" fill="none" stroke="url(#magenta)" stroke-width="17" stroke-linecap="round"/><path d="M284.5 243.5 Q398 255.5 372 355.5" fill="none" stroke="#0c0c12" stroke-width="23" stroke-linecap="round"/><path d="M284.5 243.5 Q398 255.5 372 355.5" fill="none" stroke="url(#magenta)" stroke-width="17" stroke-linecap="round"/><path d="M225.5 276.5 Q124 288.5 150 388.5" fill="none" stroke="#0c0c12" stroke-width="23" stroke-linecap="round"/><path d="M225.5 276.5 Q124 288.5 150 388.5" fill="none" stroke="url(#violet)" stroke-width="17" stroke-linecap="round"/><path d="M286.5 276.5 Q388 288.5 362 388.5" fill="none" stroke="#0c0c12" stroke-width="23" stroke-linecap="round"/><path d="M286.5 276.5 Q388 288.5 362 388.5" fill="none" stroke="url(#violet)" stroke-width="17" stroke-linecap="round"/><path d="M223.4 309.6 Q146 321.6 172 405.6" fill="none" stroke="#0c0c12" stroke-width="23" stroke-linecap="round"/><path d="M223.4 309.6 Q146 321.6 172 405.6" fill="none" stroke="url(#lilac)" stroke-width="17" stroke-linecap="round"/><path d="M288.6 309.6 Q366 321.6 340 405.6" fill="none" stroke="#0c0c12" stroke-width="23" stroke-linecap="round"/><path d="M288.6 309.6 Q366 321.6 340 405.6" fill="none" stroke="url(#lilac)" stroke-width="17" stroke-linecap="round"/><rect x="231.0" y="64.0" width="50.0" height="28.0" rx="12.7" fill="#0c0c12"/><rect x="234.0" y="67.0" width="44.0" height="22.0" rx="10.0" fill="url(#gold)"/><rect x="228.9" y="96.6" width="54.2" height="28.9" rx="13.1" fill="#0c0c12"/><rect x="231.9" y="99.6" width="48.2" height="22.9" rx="10.4" fill="url(#amber)"/><rect x="226.8" y="129.3" width="58.4" height="29.8" rx="13.6" fill="#0c0c12"/><rect x="229.8" y="132.3" width="52.4" height="23.8" rx="10.8" fill="url(#coral)"/><rect x="224.7" y="161.9" width="62.5" height="30.7" rx="14.0" fill="#0c0c12"/><rect x="227.7" y="164.9" width="56.5" height="24.7" rx="11.2" fill="url(#pink)"/><rect x="222.6" y="194.5" width="66.7" height="31.6" rx="14.4" fill="#0c0c12"/><rect x="225.6" y="197.5" width="60.7" height="25.6" rx="11.7" fill="url(#magenta)"/><rect x="220.5" y="227.2" width="70.9" height="32.5" rx="14.8" fill="#0c0c12"/><rect x="223.5" y="230.2" width="64.9" height="26.5" rx="12.1" fill="url(#magenta)"/><rect x="218.5" y="259.8" width="75.1" height="33.5" rx="15.2" fill="#0c0c12"/><rect x="221.5" y="262.8" width="69.1" height="27.5" rx="12.5" fill="url(#violet)"/><rect x="216.4" y="292.5" width="79.3" height="34.4" rx="15.6" fill="#0c0c12"/><rect x="219.4" y="295.5" width="73.3" height="28.4" rx="12.9" fill="url(#lilac)"/><rect x="214.3" y="325.1" width="83.5" height="35.3" rx="16.0" fill="#0c0c12"/><rect x="217.3" y="328.1" width="77.5" height="29.3" rx="13.3" fill="url(#sky)"/><rect x="212.2" y="357.7" width="87.6" height="36.2" rx="16.4" fill="#0c0c12"/><rect x="215.2" y="360.7" width="81.6" height="30.2" rx="13.7" fill="url(#cyan)"/><rect x="210.1" y="390.4" width="91.8" height="37.1" rx="16.9" fill="#0c0c12"/><rect x="213.1" y="393.4" width="85.8" height="31.1" rx="14.1" fill="url(#teal)"/><rect x="208.0" y="423.0" width="96.0" height="38.0" rx="17.3" fill="#0c0c12"/><rect x="211.0" y="426.0" width="90.0" height="32.0" rx="14.5" fill="url(#mint)"/></svg>